#!OML:ASF F:\VICON\USERDATA\INSTALL\Justin_Nancy\Justin_Nancy.ASF
:FULLY-SPECIFIED
:DEGREES
275
root 0.0768966 16.9493 31.9713 0.705702 1.08959 -4.98162
lowerback 5.59382 1.28358 4.29574
upperback -0.359943 2.13693 3.84076
thorax -3.505 1.01859 1.38028
lowerneck -16.5844 -3.8144 -9.34666
upperneck 21.5135 -4.18553 5.7654
head 9.90013 -2.05061 3.01987
rclavicle -2.73329e-014 -2.62396e-014
rhumerus -25.0543 -5.21171 -77.6437
rradius 36.5343
rwrist 1.11074
rhand -15.9146 12.178
rfingers 7.12502
rthumb 10.2826 -17.5507
lclavicle -2.73329e-014 -2.62396e-014
lhumerus -35.0416 0.00261889 89.4395
lradius 27.5449
lwrist -6.36516
lhand -14.0113 24.8369
lfingers 7.12502
lthumb 12.1182 54.466
rfemur 7.79417 5.38876 33.2063
rtibia 18.0022
rfoot -17.2693 -10.5335
rtoes -0.0950203
lfemur -34.9519 -4.99996 -13.9399
ltibia 30.1096
lfoot -6.85636 7.0479
ltoes -7.65578
276
root 0.0812538 16.9123 32.2045 0.919326 0.701692 -5.02121
lowerback 5.45826 1.42953 4.29286
upperback -0.416185 2.32453 3.83632
thorax -3.48582 1.11172 1.36456
lowerneck -16.6014 -3.79955 -9.31177
upperneck 21.5511 -4.1627 5.72052
head 9.91295 -2.04233 3.00164
rclavicle 3.08365e-014 3.57812e-014
rhumerus -24.4478 -4.40966 -77.724
rradius 37.1634
rwrist 0.617592
rhand -15.9406 12.0438
rfingers 7.12502
rthumb 10.2575 -17.6861
lclavicle 3.08365e-014 3.57812e-014
lhumerus -35.3417 0.948052 89.137
lradius 26.9977
lwrist -7.21458
lhand -13.7598 24.9708
lfingers 7.12502
lthumb 12.3607 54.5854
rfemur 9.09339 5.377 33.3272
rtibia 16.9975
rfoot -17.0928 -10.5734
rtoes -1.49872
lfemur -35.2849 -5.96702 -13.2077
ltibia 27.6441
lfoot -7.81015 8.14388
ltoes -6.48893
277
root 0.0766889 16.8593 32.4369 0.926974 0.059029 -5.37763
lowerback 5.59071 1.65584 4.44236
upperback -0.32761 2.64429 3.958
thorax -3.46606 1.26965 1.3785
lowerneck -16.8883 -3.81895 -9.25396
upperneck 21.5307 -4.17088 5.69465
head 9.95825 -2.03968 2.97901
rclavicle 1.02871e-014 1.66979e-014
rhumerus -23.6669 -3.75857 -77.75
rradius 37.6741
rwrist 0.316587
rhand -16.1684 12.1814
rfingers 7.12502
rthumb 10.0377 -17.5592
lclavicle 1.02871e-014 1.66979e-014
lhumerus -35.4744 1.83664 88.8626
lradius 26.3116
lwrist -7.54577
lhand -14.2899 24.8089
lfingers 7.12502
lthumb 11.8495 54.4536
rfemur 10.653 5.82116 33.9268
rtibia 16.0045
rfoot -16.6707 -10.7315
rtoes -3.35165
lfemur -35.4615 -6.56663 -12.1289
ltibia 25.5161
lfoot -8.36501 9.12274
ltoes -7.97354
278
root 0.0848374 16.8166 32.6804 1.03975 -0.329466 -5.48706
lowerback 5.47696 1.8159 4.57884
upperback -0.259886 2.85405 3.97779
thorax -3.32487 1.37416 1.31072
lowerneck -17.2139 -3.8484 -9.36407
upperneck 21.5974 -4.15918 5.72571
head 10.0459 -2.03542 3.00844
rclavicle -2.76808e-014 -1.59028e-014
rhumerus -23.0219 -3.26042 -77.6658
rradius 38.27
rwrist 0.266252
rhand -16.3327 12.9145
rfingers 7.12502
rthumb 9.87915 -16.8338
lclavicle -2.76808e-014 -1.59028e-014
lhumerus -35.6479 2.65674 88.6525
lradius 25.6524
lwrist -7.90003
lhand -14.6873 24.3934
lfingers 7.12502
lthumb 11.4663 54.0598
rfemur 12.0235 5.884 34.0364
rtibia 15.0985
rfoot -16.4589 -10.3651
rtoes -5.40019
lfemur -35.8546 -6.81939 -11.6772
ltibia 23.8131
lfoot -8.55234 9.65659
ltoes -11.8841
279
root 0.0965826 16.7857 32.9217 1.2321 -0.655504 -5.509
lowerback 5.34418 1.9535 4.74258
upperback -0.368486 3.04079 3.87939
thorax -3.34742 1.46178 1.10622
lowerneck -17.3886 -3.823 -9.25516
upperneck 21.7426 -4.13471 5.69485
head 10.125 -2.01736 2.98352
rclavicle 1.68718e-014 7.15625e-015
rhumerus -22.6036 -2.91889 -77.6717
rradius 38.7483
rwrist 0.108439
rhand -16.4983 13.4891
rfingers 7.12502
rthumb 9.71938 -16.2666
lclavicle 1.68718e-014 7.15625e-015
lhumerus -36.0029 3.51281 88.1902
lradius 24.9651
lwrist -8.76562
lhand -13.8697 24.7464
lfingers 7.12502
lthumb 12.2548 54.3674
rfemur 13.2149 5.88505 33.9965
rtibia 14.2887
rfoot -16.0953 -9.99533
rtoes -7.9435
lfemur -36.4534 -7.1031 -11.3113
ltibia 22.5082
lfoot -8.8191 10.112
ltoes -15.0914
280
root 0.0968038 16.7549 33.1554 1.33082 -1.12423 -5.61945
lowerback 5.34383 2.12419 4.7858
upperback -0.453599 3.27567 3.86571
thorax -3.42937 1.57534 1.04828
lowerneck -17.7997 -3.81732 -8.99779
upperneck 21.8733 -4.1287 5.5457
head 10.2392 -2.00548 2.88656
rclavicle 2.98177e-015 -2.54444e-014
rhumerus -22.128 -2.73583 -77.692
rradius 39.0375
rwrist -0.0322489
rhand -16.6095 13.7186
rfingers 7.12502
rthumb 9.61214 -16.0421
lclavicle 2.98177e-015 -2.54444e-014
lhumerus -36.4162 4.63863 87.6148
lradius 24.29
lwrist -9.57449
lhand -13.4389 25.0527
lfingers 7.12502
lthumb 12.6701 54.6484
rfemur 14.3786 6.1404 34.1486
rtibia 13.6414
rfoot -15.5962 -9.77648
rtoes -10.1961
lfemur -36.8358 -7.52763 -10.6529
ltibia 21.5097
lfoot -9.26034 10.9647
ltoes -18.1336
281
root 0.100812 16.7253 33.3949 1.40151 -1.43417 -5.7253
lowerback 5.34339 2.25767 4.89629
upperback -0.489034 3.46189 3.84631
thorax -3.45571 1.66464 0.951846
lowerneck -17.0374 -4.21304 -9.67293
upperneck 21.4885 -4.69175 6.09701
head 10.0376 -2.26614 3.11646
rclavicle -1.5207e-014 -9.54166e-015
rhumerus -21.6188 -2.72828 -77.6792
rradius 39.2891
rwrist -0.0495189
rhand -16.5845 13.814
rfingers 7.12502
rthumb 9.63629 -15.9456
lclavicle -1.5207e-014 -9.54166e-015
lhumerus -36.6261 5.53243 87.1717
lradius 23.4379
lwrist -10.043
lhand -13.6576 24.791
lfingers 7.12502
lthumb 12.4592 54.3996
rfemur 15.4271 6.22381 34.2259
rtibia 13.2601
rfoot -15.3873 -9.48529
rtoes -12.3953
lfemur -37.0007 -7.52291 -10.342
ltibia 20.8731
lfoot -12.5026 11.3994
ltoes -8.2814
282
root 0.116747 16.6945 33.6421 1.50077 -1.46897 -5.6526
lowerback 5.27324 2.29666 5.05991
upperback -0.534292 3.51551 3.68651
thorax -3.44236 1.6862 0.694196
lowerneck -17.1284 -4.27366 -9.71335
upperneck 21.646 -4.79573 6.22838
head 10.1247 -2.30217 3.15681
rclavicle -4.65405e-014 -2.38542e-015
rhumerus -21.154 -2.68248 -77.7279
rradius 39.5668
rwrist -0.171867
rhand -16.6397 14.046
rfingers 7.12502
rthumb 9.583 -15.7161
lclavicle -4.65405e-014 -2.38542e-015
lhumerus -36.8699 6.19117 86.6972
lradius 22.6543
lwrist -10.5483
lhand -13.8193 24.5598
lfingers 7.12502
lthumb 12.3033 54.1779
rfemur 16.3731 5.86227 33.9366
rtibia 13.0498
rfoot -15.4318 -8.85741
rtoes -14.2054
lfemur -37.169 -6.88652 -10.8008
ltibia 20.692
lfoot -11.2865 10.6993
ltoes -14.3146
283
root 0.132924 16.6628 33.8829 1.44467 -1.51637 -5.65834
lowerback 5.44285 2.30673 5.25227
upperback -0.614796 3.55766 3.62286
thorax -3.60535 1.69819 0.5096
lowerneck -16.9827 -4.02438 -9.56165
upperneck 21.6919 -4.4923 6.18261
head 10.0803 -2.15771 3.161
rclavicle -3.43401e-014 -1.66979e-014
rhumerus -20.8819 -2.73606 -77.7073
rradius 39.7981
rwrist -0.103544
rhand -16.6569 14.3107
rfingers 7.12502
rthumb 9.56642 -15.4522
lclavicle -3.43401e-014 -1.66979e-014
lhumerus -37.3991 7.47921 86.0172
lradius 22.0886
lwrist -11.6783
lhand -13.4808 25.1215
lfingers 7.12502
lthumb 12.6297 54.7196
rfemur 17.3409 5.54676 33.7519
rtibia 12.9717
rfoot -15.2766 -8.22448
rtoes -16.1325
lfemur -37.2262 -5.9614 -11.3909
ltibia 20.9233
lfoot -10.713 9.50507
ltoes -15.7734
